<?xml version="1.0" encoding="UTF-8"?>
<svg xmlns="http://www.w3.org/2000/svg" xmlns:xlink="http://www.w3.org/1999/xlink" width="150px" height="150px" viewBox="0 0 372 372" version="1.1">
<g id="surface1">
<path style=" stroke:none;fill-rule:nonzero;fill:rgb(18.431373%,25.882353%,24.705882%);fill-opacity:1;" d="M 59.699219 336 L 89.699219 336 L 89.699219 372 L 59.699219 372 Z M 59.699219 336 "/>
<path style=" stroke:none;fill-rule:nonzero;fill:rgb(18.431373%,25.882353%,24.705882%);fill-opacity:1;" d="M 281.699219 336 L 311.699219 336 L 311.699219 372 L 281.699219 372 Z M 281.699219 336 "/>
<path style=" stroke:none;fill-rule:nonzero;fill:rgb(95.686275%,93.72549%,85.098039%);fill-opacity:1;" d="M 347.699219 316.199219 C 347.699219 340.199219 327.898438 360 303.898438 360 L 67.5 360 C 43.5 360 23.699219 340.199219 23.699219 316.199219 L 23.699219 43.800781 C 23.699219 19.800781 43.5 0 67.5 0 L 304.5 0 C 328.5 0 348.300781 19.800781 348.300781 43.800781 L 348.300781 316.199219 Z M 347.699219 316.199219 "/>
<path style=" stroke:none;fill-rule:nonzero;fill:rgb(89.803922%,85.098039%,66.666667%);fill-opacity:1;" d="M 185.699219 0 L 305.101562 0 C 329.101562 0 347.699219 18.601562 347.699219 43.199219 L 347.699219 313.199219 C 347.699219 339.601562 327.898438 360 303.898438 360 L 185.699219 360 "/>
<path style=" stroke:none;fill-rule:nonzero;fill:rgb(89.803922%,85.098039%,66.666667%);fill-opacity:1;" d="M 108.605469 114.46875 L 64.484375 70.34375 L 98.421875 36.40625 L 142.546875 80.527344 Z M 108.605469 114.46875 "/>
<path style=" stroke:none;fill-rule:nonzero;fill:rgb(100%,75.686275%,7.843137%);fill-opacity:1;" d="M 318.300781 207 C 318.300781 280.234375 258.933594 339.601562 185.699219 339.601562 C 112.46875 339.601562 53.101562 280.234375 53.101562 207 C 53.101562 133.765625 112.46875 74.398438 185.699219 74.398438 C 258.933594 74.398438 318.300781 133.765625 318.300781 207 Z M 318.300781 207 "/>
<path style=" stroke:none;fill-rule:nonzero;fill:rgb(98.823529%,63.137255%,16.470588%);fill-opacity:1;" d="M 185.699219 74.398438 C 258.898438 74.398438 318.300781 133.800781 318.300781 207 C 318.300781 280.199219 258.898438 339.601562 185.699219 339.601562 "/>
<path style=" stroke:none;fill-rule:nonzero;fill:rgb(22.745098%,76.078431%,94.901961%);fill-opacity:1;" d="M 291.898438 207 C 291.898438 265.652344 244.351562 313.199219 185.699219 313.199219 C 127.046875 313.199219 79.5 265.652344 79.5 207 C 79.5 148.347656 127.046875 100.800781 185.699219 100.800781 C 244.351562 100.800781 291.898438 148.347656 291.898438 207 Z M 291.898438 207 "/>
<path style=" stroke:none;fill-rule:nonzero;fill:rgb(0%,61.176471%,77.647059%);fill-opacity:1;" d="M 260.699219 132 C 302.101562 173.398438 302.101562 240.601562 260.699219 282 C 219.300781 323.398438 152.101562 323.398438 110.699219 282 "/>
<path style=" stroke:none;fill-rule:nonzero;fill:rgb(6.27451%,73.333333%,90.980392%);fill-opacity:1;" d="M 245.699219 207 C 245.699219 240.136719 218.835938 267 185.699219 267 C 152.5625 267 125.699219 240.136719 125.699219 207 C 125.699219 173.863281 152.5625 147 185.699219 147 C 218.835938 147 245.699219 173.863281 245.699219 207 Z M 245.699219 207 "/>
<path style=" stroke:none;fill-rule:nonzero;fill:rgb(0%,61.176471%,77.647059%);fill-opacity:1;" d="M 143.101562 164.398438 C 166.5 141 204.300781 141 227.699219 164.398438 C 251.101562 187.800781 251.101562 225.601562 227.699219 249 "/>
<path style=" stroke:none;fill-rule:nonzero;fill:rgb(21.568627%,80%,52.156863%);fill-opacity:1;" d="M 104.101562 50.398438 C 104.101562 64.316406 92.816406 75.601562 78.898438 75.601562 C 64.984375 75.601562 53.699219 64.316406 53.699219 50.398438 C 53.699219 36.484375 64.984375 25.199219 78.898438 25.199219 C 92.816406 25.199219 104.101562 36.484375 104.101562 50.398438 Z M 104.101562 50.398438 "/>
<path style=" stroke:none;fill-rule:nonzero;fill:rgb(3.921569%,62.745098%,43.137255%);fill-opacity:1;" d="M 96.300781 33 C 105.898438 42.601562 105.898438 58.800781 96.300781 68.398438 C 86.699219 78 70.5 78 60.898438 68.398438 "/>
<path style=" stroke:none;fill-rule:nonzero;fill:rgb(86.666667%,80.784314%,57.254902%);fill-opacity:1;" d="M 275.699219 54.601562 C 275.699219 57.601562 273.300781 60 270.300781 60 L 131.101562 60 C 128.101562 60 125.699219 57.601562 125.699219 54.601562 L 125.699219 53.398438 C 125.699219 50.398438 128.101562 48 131.101562 48 L 270.300781 48 C 273.300781 48 275.699219 50.398438 275.699219 53.398438 Z M 275.699219 54.601562 "/>
<path style=" stroke:none;fill-rule:nonzero;fill:rgb(95.686275%,93.72549%,85.098039%);fill-opacity:1;" d="M 317.699219 37.199219 C 317.699219 39.601562 315.300781 42 312.898438 42 L 286.5 42 C 284.101562 42 281.699219 39.601562 281.699219 37.199219 L 281.699219 34.800781 C 281.699219 32.398438 284.101562 30 286.5 30 L 312.898438 30 C 315.300781 30 317.699219 32.398438 317.699219 34.800781 Z M 317.699219 37.199219 "/>
<path style=" stroke:none;fill-rule:nonzero;fill:rgb(95.686275%,93.72549%,85.098039%);fill-opacity:1;" d="M 317.699219 61.199219 C 317.699219 63.601562 315.300781 66 312.898438 66 L 286.5 66 C 284.101562 66 281.699219 63.601562 281.699219 61.199219 L 281.699219 58.800781 C 281.699219 56.398438 284.101562 54 286.5 54 L 312.898438 54 C 315.300781 54 317.699219 56.398438 317.699219 58.800781 Z M 317.699219 61.199219 "/>
<path style=" stroke:none;fill-rule:nonzero;fill:rgb(95.686275%,93.72549%,85.098039%);fill-opacity:1;" d="M 317.699219 85.199219 C 317.699219 87.601562 315.300781 90 312.898438 90 L 286.5 90 C 284.101562 90 281.699219 87.601562 281.699219 85.199219 L 281.699219 82.800781 C 281.699219 80.398438 284.101562 78 286.5 78 L 312.898438 78 C 315.300781 78 317.699219 80.398438 317.699219 82.800781 Z M 317.699219 85.199219 "/>
</g>
</svg>
